<!DOCTYPE svg PUBLIC "-//W3C//DTD SVG 1.1//EN" "http://www.w3.org/Graphics/SVG/1.1/DTD/svg11.dtd">
<!-- Uploaded to: SVG Repo, www.svgrepo.com, Transformed by: SVG Repo Mixer Tools -->
<svg fill="#000000" width="800px" height="800px" viewBox="-2.4 -2.4 28.80 28.80" xmlns="http://www.w3.org/2000/svg" stroke="#000000" stroke-width="0.00024000000000000003" transform="rotate(0)">
<g id="SVGRepo_bgCarrier" stroke-width="0"/>
<g id="SVGRepo_tracerCarrier" stroke-linecap="round" stroke-linejoin="round" stroke="#CCCCCC" stroke-width="0.192"/>
<g id="SVGRepo_iconCarrier">
<path d="M22,8.5H19.535l-3.7-5.555a1,1,0,0,0-1.664,1.11L17.132,8.5H6.868L9.832,4.055a1,1,0,0,0-1.664-1.11L4.465,8.5H2a1,1,0,0,0,0,2H3v8a3,3,0,0,0,3,3H18a3,3,0,0,0,3-3v-8h1a1,1,0,0,0,0-2Zm-3,10a1,1,0,0,1-1,1H6a1,1,0,0,1-1-1v-8H19ZM7,17V13a1,1,0,0,1,2,0v4a1,1,0,0,1-2,0Zm4,0V13a1,1,0,0,1,2,0v4a1,1,0,0,1-2,0Zm4,0V13a1,1,0,0,1,2,0v4a1,1,0,0,1-2,0Z"/>
</g>
</svg>